<?xml version="1.0" encoding="UTF-8" standalone="no"?>
<!-- Created with Inkscape (http://www.inkscape.org/) -->

<svg
   xmlns:dc="http://purl.org/dc/elements/1.1/"
   xmlns:cc="http://creativecommons.org/ns#"
   xmlns:rdf="http://www.w3.org/1999/02/22-rdf-syntax-ns#"
   xmlns:svg="http://www.w3.org/2000/svg"
   xmlns="http://www.w3.org/2000/svg"
   xmlns:sodipodi="http://sodipodi.sourceforge.net/DTD/sodipodi-0.dtd"
   xmlns:inkscape="http://www.inkscape.org/namespaces/inkscape"
   width="87.999794mm"
   height="87.999794mm"
   viewBox="0 0 87.999794 87.999794"
   version="1.1"
   id="svg882"
   sodipodi:docname="whitelogo.svg"
   inkscape:version="0.92.3 (2405546, 2018-03-11)">
  <defs
     id="defs876">
    <circle
       style="opacity:1;fill:#d7f4e3;fill-opacity:1;stroke:none;stroke-width:0.25746268;stroke-miterlimit:4;stroke-dasharray:none;stroke-opacity:1"
       id="path5728"
       cx="251.28853"
       cy="196.12709"
       r="34.5" />
    <path
       style="fill:none;stroke:#000000;stroke-width:0.30426264px;stroke-linecap:butt;stroke-linejoin:miter;stroke-opacity:1"
       d="m 89.009318,208.03333 c 0,-10.3667 -4.267585,-20.66956 -11.597946,-27.99992 -7.330362,-7.33036 -17.633222,-11.59794 -27.999919,-11.59794 -10.366697,0 -20.669557,4.26758 -27.999919,11.59794 -7.330361,7.33036 -11.5979457,17.63322 -11.5979457,27.99992 0,10.3667 4.2675847,20.66956 11.5979457,27.99992 7.330362,7.33036 17.633222,11.59794 27.999919,11.59794 10.366697,0 20.669557,-4.26758 27.999919,-11.59794 7.330361,-7.33036 11.597946,-17.63322 11.597946,-27.99992 z"
       id="path5811"
       inkscape:connector-curvature="0"
       inkscape:original-d="m 89.009318,208.03333 c 26.398272,2.9e-4 -52.79686,-3.1e-4 -79.1957297,0 -26.3988953,2.9e-4 52.7974497,-3.1e-4 79.1957297,0 z" />
  </defs>
  <sodipodi:namedview
     id="base"
     pagecolor="#ffffff"
     bordercolor="#666666"
     borderopacity="1.0"
     inkscape:pageopacity="0.0"
     inkscape:pageshadow="2"
     inkscape:zoom="1.979899"
     inkscape:cx="66.121316"
     inkscape:cy="133.45231"
     inkscape:document-units="mm"
     inkscape:current-layer="g853"
     showgrid="false"
     inkscape:window-width="1920"
     inkscape:window-height="1027"
     inkscape:window-x="-8"
     inkscape:window-y="-8"
     inkscape:window-maximized="1"
     inkscape:pagecheckerboard="true" />
  <metadata
     id="metadata879">
    <rdf:RDF>
      <cc:Work
         rdf:about="">
        <dc:format>image/svg+xml</dc:format>
        <dc:type
           rdf:resource="http://purl.org/dc/dcmitype/StillImage" />
        <dc:title />
      </cc:Work>
    </rdf:RDF>
  </metadata>
  <g
     inkscape:label="Layer 1"
     inkscape:groupmode="layer"
     id="layer1"
     transform="translate(-32.351292,-67.791767)">
    <g
       transform="translate(-67.648803,-41.208297)"
       id="g853">
      <path
         style="opacity:1;fill:#ffffff;fill-opacity:1;stroke-width:0.99604511"
         d="M 166.29883,0 A 166.29921,166.29921 0 0 0 0,166.29883 166.29921,166.29921 0 0 0 166.29883,332.59766 166.29921,166.29921 0 0 0 332.59766,166.29883 166.29921,166.29921 0 0 0 166.29883,0 Z m 0,6.5722656 A 159.72599,159.72597 0 0 1 326.02539,166.29883 159.72599,159.72597 0 0 1 166.29883,326.02539 159.72599,159.72597 0 0 1 6.5722656,166.29883 159.72599,159.72597 0 0 1 166.29883,6.5722656 Z m 3.7207,9.8300784 -0.0508,0.527344 c 0.56073,0.05447 0.97488,0.13769 1.24219,0.25 0.54318,0.235045 0.94613,0.472201 1.21094,0.708984 0.2743,0.237706 0.66117,0.711636 1.1582,1.421875 l -1.30664,13.443359 c -0.10525,1.083442 -0.277,1.766969 -0.51563,2.050782 -0.39015,0.460964 -0.99933,0.650635 -1.82617,0.570312 l -0.66992,-0.06445 -0.0508,0.527344 6.72851,0.652343 0.0508,-0.527343 -0.68359,-0.06641 c -0.75081,-0.07294 -1.287,-0.325519 -1.60937,-0.759765 -0.22799,-0.319548 -0.28533,-1.073735 -0.16993,-2.261719 l 1.15625,-11.904297 11.23243,16.806641 0.51367,0.04883 1.58398,-16.292969 c 0.10525,-1.083441 0.277,-1.766969 0.51563,-2.050781 0.39015,-0.460964 0.99321,-0.651666 1.81054,-0.572266 l 0.6836,0.06641 0.0527,-0.527343 -6.72851,-0.654297 -0.0527,0.527344 0.66992,0.06445 c 0.76031,0.07386 1.29847,0.328396 1.61133,0.761719 0.23749,0.320471 0.29705,1.073734 0.18164,2.261718 l -1.08203,11.148438 -10.41016,-15.646485 z m -12.33008,0.193359 c -0.3058,-0.01042 -0.61523,-0.0046 -0.92968,0.01563 -2.53472,0.162733 -4.65935,1.145737 -6.3711,2.949219 -1.97157,2.078506 -2.85776,4.65651 -2.66015,7.734375 0.19332,3.011162 1.25524,5.405515 3.1875,7.185547 1.94178,1.779419 4.24789,2.583407 6.91601,2.412109 2.63953,-0.169463 4.82524,-1.284445 6.55859,-3.347656 1.73336,-2.063212 2.50545,-4.56726 2.31641,-7.511719 -0.18353,-2.858698 -1.26144,-5.181637 -3.23242,-6.96875 -1.71681,-1.572597 -3.64451,-2.395831 -5.78516,-2.46875 z m -0.45898,1.0625 c 1.5391,0.04351 2.803,0.602668 3.79297,1.677735 1.41008,1.545643 2.22265,3.976879 2.43554,7.292968 0.19639,3.058807 -0.2555,5.335739 -1.35546,6.832032 -1.09044,1.49568 -2.5452,2.303072 -4.36524,2.419921 -1.70569,0.109509 -3.12032,-0.450428 -4.24219,-1.679687 -1.46262,-1.618817 -2.29493,-4.010203 -2.49804,-7.173828 -0.19822,-3.087394 0.30316,-5.473519 1.50586,-7.158203 0.9656,-1.35371 2.3165,-2.085922 4.05078,-2.197266 0.23108,-0.01484 0.45591,-0.01989 0.67578,-0.01367 z M 143.07617,18.5 l -8.18164,1.515625 0.0957,0.521484 0.67579,-0.125 c 0.45065,-0.08355 0.90449,-0.05108 1.35937,0.09766 0.32238,0.115032 0.55205,0.280739 0.68945,0.498046 0.1795,0.287195 0.35782,0.915787 0.53711,1.882813 l 2.28907,12.335937 c 0.21236,1.14541 0.23212,1.888257 0.0625,2.230469 -0.27148,0.526189 -0.80121,0.863546 -1.58985,1.009766 l -0.67578,0.125 0.0977,0.521484 8.18164,-1.517578 -0.0977,-0.521484 -0.68945,0.128906 c -0.45065,0.08355 -0.89826,0.04891 -1.34375,-0.101563 -0.33177,-0.113291 -0.56768,-0.276832 -0.70508,-0.49414 -0.1795,-0.287195 -0.35782,-0.915786 -0.53711,-1.882813 l -2.28711,-12.335937 c -0.21237,-1.14541 -0.22979,-1.890422 -0.0508,-2.234375 0.27147,-0.526189 0.79692,-0.86138 1.57617,-1.005859 l 0.68946,-0.126954 z m -11.90625,2.203125 -15.18945,4.541016 1.08398,4.429687 0.52149,-0.154297 c -0.18755,-0.860817 -0.18692,-1.590338 0.004,-2.185547 0.19083,-0.595209 0.50006,-1.05116 0.92383,-1.367187 0.32766,-0.237468 0.9258,-0.484348 1.79492,-0.744141 l 2.23633,-0.669922 4.25,14.216797 c 0.31175,1.042945 0.41064,1.740831 0.29688,2.09375 -0.18715,0.574177 -0.67416,0.979663 -1.46094,1.214844 l -0.6582,0.197266 0.15039,0.507812 7.89062,-2.359375 -0.15039,-0.507812 -0.64648,0.193359 c -0.72275,0.216038 -1.31484,0.182669 -1.77735,-0.09766 -0.33178,-0.209772 -0.66793,-0.885717 -1.00976,-2.029297 l -4.25,-14.216797 2.62109,-0.783203 c 0.76849,-0.229712 1.42365,-0.286616 1.9668,-0.169922 0.54956,0.104811 1.04606,0.380325 1.48828,0.826172 0.27227,0.277392 0.57395,0.785033 0.9043,1.523437 l 0.52148,-0.15625 z m 79.38281,2.560547 c -1.47245,-0.06384 -2.91483,0.230294 -4.32617,0.880859 -2.60136,1.200088 -4.3791,3.265243 -5.33594,6.197266 -0.9361,2.868481 -0.83833,5.488159 0.29688,7.857422 1.14429,2.372225 2.9876,3.973277 5.5293,4.802734 2.51446,0.82057 4.95956,0.594459 7.33398,-0.679687 2.37443,-1.274147 4.01823,-3.314202 4.9336,-6.119141 0.8887,-2.723241 0.75059,-5.279733 -0.41797,-7.669922 -1.15652,-2.396304 -2.93363,-3.985519 -5.33008,-4.767578 -0.90548,-0.295494 -1.80012,-0.463647 -2.6836,-0.501953 z m 0.29493,1.107422 c 0.58386,-1.44e-4 1.18515,0.100554 1.80468,0.302734 1.76103,0.574695 2.93952,1.642731 3.53516,3.203125 0.73705,1.958089 0.59144,4.516821 -0.43945,7.675781 -0.95092,2.913869 -2.21495,4.8615 -3.79102,5.84375 -1.56699,0.985213 -3.21737,1.194715 -4.95117,0.628907 -1.62487,-0.53026 -2.73179,-1.573428 -3.31836,-3.13086 -0.75874,-2.04552 -0.64561,-4.57417 0.33789,-7.58789 0.9598,-2.941101 2.31145,-4.972623 4.05273,-6.091797 0.87403,-0.562251 1.79643,-0.843511 2.76954,-0.84375 z m 15.19531,4.513672 -0.23633,0.474609 0.61524,0.306641 c 0.41916,0.207872 0.76326,0.504852 1.02929,0.892578 0.18883,0.285491 0.27247,0.556215 0.25195,0.8125 -0.0288,0.337447 -0.26226,0.947015 -0.69921,1.828125 l -5.57422,11.240234 c -0.51756,1.043645 -0.94605,1.652291 -1.28711,1.824219 -0.53294,0.257962 -1.15838,0.207915 -1.87696,-0.148438 l -0.61718,-0.304687 -0.23438,0.474609 7.4668,3.703125 0.23633,-0.474609 -0.62891,-0.3125 c -0.41061,-0.20363 -0.75276,-0.50061 -1.02734,-0.892578 -0.19738,-0.289734 -0.28614,-0.564028 -0.26563,-0.820313 0.0288,-0.337447 0.26226,-0.945061 0.69922,-1.826172 l 2.70899,-5.466797 3.16992,1.572266 c 0.5817,0.288476 0.97725,0.585805 1.1875,0.892578 0.22304,0.302461 0.33818,0.651709 0.34375,1.048828 0.0141,0.401362 -0.14217,0.943002 -0.46875,1.623047 l 0.47461,0.234375 2.92187,-5.888672 -0.47461,-0.236328 c -0.5821,0.894396 -1.12552,1.418841 -1.6289,1.574219 -0.49059,0.151066 -1.09905,0.04614 -1.82618,-0.314453 l -3.16992,-1.570313 3.39063,-6.839843 3.83789,1.902343 c 0.90677,0.449684 1.53212,0.866796 1.875,1.25 0.35143,0.387447 0.57583,0.845811 0.67578,1.375 0.11274,0.524877 0.079,1.248901 -0.10156,2.171875 l 0.44922,0.222657 1.73046,-3.908203 z m -120.38281,0.214843 -0.45508,0.208985 0.42969,17.376953 c 0.045,1.522719 -0.0582,2.593601 -0.31055,3.212891 -0.12185,0.307659 -0.52253,0.696408 -1.20117,1.164062 l 0.2207,0.480469 5.5625,-2.541016 -0.2207,-0.482422 c -0.87887,0.328195 -1.49388,0.451761 -1.84571,0.371094 -0.34711,-0.09332 -0.58203,-0.273748 -0.70507,-0.542969 -0.15481,-0.338696 -0.24147,-0.919202 -0.25977,-1.740234 l -0.0762,-3.335938 6.83984,-3.125 2.22852,2.050782 c 0.72446,0.66626 1.17496,1.192099 1.34961,1.574218 0.13098,0.28659 0.11563,0.585539 -0.0449,0.900391 -0.15188,0.310883 -0.5722,0.645706 -1.25977,1.001953 l 0.2207,0.482422 6.96875,-3.185547 -0.21875,-0.482422 c -0.74066,0.286025 -1.39595,0.348327 -1.96289,0.1875 -0.56223,-0.17348 -1.35969,-0.736557 -2.39453,-1.691406 z m 0.91406,4.480469 6.25976,5.769531 -6.07031,2.773438 z m -13.775392,2.251953 -12.125,7.705078 2.267578,4.3125 0.458985,-0.291015 c -0.455646,-1.090715 -0.696804,-1.876747 -0.720703,-2.359375 -0.02096,-0.49581 0.104037,-0.959423 0.373046,-1.390625 0.271947,-0.444383 0.842558,-0.944877 1.712891,-1.498047 l 5.246094,-3.333985 -1.003907,21.650391 0.283204,0.447266 13.345704,-8.482422 -1.98438,-4.832031 -0.44531,0.18164 c 0.44875,1.64949 0.53875,2.876943 0.26953,3.681641 -0.26116,0.799576 -0.907945,1.526031 -1.939451,2.181641 l -6.720703,4.271484 z m 157.119142,6.09961 -0.31836,0.423828 0.58398,0.4375 c 0.58873,0.440433 0.90662,0.940507 0.95313,1.5 0.0291,0.391458 -0.32254,1.077975 -1.05469,2.05664 l -7.51562,10.044922 c -0.66351,0.886916 -1.16,1.393003 -1.49024,1.515625 -0.60321,0.21653 -1.23308,0.07785 -1.89062,-0.414062 l -0.58594,-0.4375 -0.31641,0.423828 6.66211,4.986328 0.31836,-0.425781 -0.5957,-0.445313 c -0.58873,-0.440433 -0.90254,-0.936461 -0.94141,-1.490234 -0.0368,-0.397178 0.31082,-1.085788 1.04297,-2.064453 l 3.38867,-4.53125 c 0.4169,0.478835 0.82298,0.909507 1.21875,1.289062 0.39578,0.379556 0.78161,0.708006 1.15625,0.988281 1.52917,1.143982 3.00728,1.630681 4.43555,1.458985 1.43591,-0.165976 2.62862,-0.883137 3.57813,-2.152344 0.69782,-0.93279 1.0258,-1.944798 0.98437,-3.037109 -0.0414,-1.092312 -0.35804,-2.081358 -0.94922,-2.964844 -0.58545,-0.891132 -1.5733,-1.857414 -2.96484,-2.898438 z m -83.61914,2.855468 A 121.51182,121.51182 0 0 0 44.787109,166.29883 121.51182,121.51182 0 0 0 166.29883,287.81055 121.51182,121.51182 0 0 0 287.81055,166.29883 121.51182,121.51182 0 0 0 166.29883,44.787109 Z m 87.1875,1.603516 c 0.72034,0.312322 1.27608,0.614535 1.66601,0.90625 0.64225,0.480472 1.10531,1.054601 1.39258,1.722656 0.29299,0.66041 0.36064,1.382923 0.20117,2.169922 -0.15374,0.779354 -0.48297,1.506855 -0.98632,2.179688 -0.73215,0.978665 -1.61967,1.559542 -2.66407,1.74414 -1.03103,0.182673 -1.94507,-0.02232 -2.74023,-0.617187 -0.22173,-0.165878 -0.47489,-0.385458 -0.75977,-0.658203 -0.28488,-0.272746 -0.60119,-0.598903 -0.94922,-0.978516 z m -177.068361,0.330078 -6.513672,5.181641 0.330078,0.414062 0.539063,-0.427734 c 0.358674,-0.285345 0.772682,-0.468553 1.24414,-0.550781 0.338649,-0.04978 0.620409,-0.01213 0.84375,0.115234 0.293316,0.169308 0.747073,0.638546 1.359375,1.408203 l 7.810547,9.820313 c 0.725252,0.911632 1.092623,1.557664 1.103516,1.939453 0.0073,0.592045 -0.302007,1.137365 -0.929688,1.636718 l -0.539062,0.427735 0.330078,0.416015 6.513672,-5.18164 -0.330078,-0.414063 -0.550782,0.435547 c -0.358675,0.285345 -0.768436,0.466685 -1.232422,0.542969 -0.346121,0.05573 -0.632127,0.01994 -0.855468,-0.107422 -0.293316,-0.169308 -0.74512,-0.638546 -1.357422,-1.408203 l -7.8125,-9.818359 c -0.725252,-0.911633 -1.088377,-1.561485 -1.091797,-1.949219 -0.0073,-0.592046 0.29776,-1.135498 0.917969,-1.628906 l 0.550781,-0.435547 z m 89.880861,2.980469 A 116.59843,116.59843 0 0 1 282.89648,166.29883 116.59843,116.59843 0 0 1 166.29883,282.89648 116.59843,116.59843 0 0 1 49.701172,166.29883 116.59843,116.59843 0 0 1 166.29883,49.701172 Z m 98.89648,3.787109 -0.375,0.375 0.48633,0.484375 c 0.32402,0.324167 0.55452,0.716622 0.68945,1.175782 0.0877,0.330862 0.0799,0.61527 -0.0215,0.851562 -0.13511,0.310555 -0.5535,0.815546 -1.25586,1.517578 l -8.86328,8.861328 c -0.82392,0.823538 -1.42462,1.260527 -1.80274,1.314453 -0.58743,0.07413 -1.16539,-0.17099 -1.73242,-0.738281 l -0.48633,-0.486328 -0.375,0.375 5.88282,5.884766 0.375,-0.375 -0.4961,-0.496094 c -0.32401,-0.324166 -0.54955,-0.711656 -0.67773,-1.164063 -0.0945,-0.337616 -0.0916,-0.625035 0.01,-0.861328 0.13511,-0.310555 0.55049,-0.814483 1.2461,-1.509765 l 4.18359,-4.181641 6.37891,6.382813 -4.1836,4.18164 c -0.82392,0.823538 -1.42763,1.259467 -1.8125,1.306641 -0.58743,0.07413 -1.16238,-0.169931 -1.72265,-0.730469 l -0.48438,-0.486328 -0.375,0.375 5.87305,5.875 0.37305,-0.375 -0.48438,-0.486328 c -0.32401,-0.324167 -0.55452,-0.714668 -0.68945,-1.173828 -0.0877,-0.330863 -0.0799,-0.61527 0.0215,-0.851563 0.13511,-0.310555 0.55049,-0.81253 1.2461,-1.507812 l 8.86328,-8.859375 c 0.67534,-0.675031 1.15885,-1.084841 1.44922,-1.226563 0.30386,-0.141719 0.61734,-0.156934 0.9414,-0.04883 0.4456,0.135142 0.83029,0.363334 1.1543,0.6875 l 0.48633,0.486328 0.375,-0.375 -5.87305,-5.875 -0.375,0.375 0.48633,0.486328 c 0.32401,0.324167 0.54955,0.711656 0.67773,1.164063 0.0944,0.337616 0.0916,0.625035 -0.01,0.861328 -0.13511,0.310555 -0.5535,0.817499 -1.25586,1.519531 l -3.93164,3.927735 -6.37891,-6.38086 3.92969,-3.929687 c 0.67535,-0.675031 1.16187,-1.079876 1.45898,-1.214844 0.30387,-0.141719 0.61433,-0.161899 0.93164,-0.06055 0.4456,0.135142 0.83029,0.365287 1.1543,0.689453 l 0.49609,0.496094 0.375,-0.375 z m -198.109372,0.466797 -4.757813,4.802734 0.376953,0.373047 0.472656,-0.478515 c 0.537566,-0.542724 1.073868,-0.79879 1.607422,-0.767578 0.398454,0.01835 1.021134,0.447163 1.869141,1.287109 l 7.958984,7.882813 -18.705078,-1.814454 -3.708984,3.744141 0.375,0.373047 c 0.396454,-0.400259 0.722591,-0.668426 0.978515,-0.804688 0.525352,-0.272587 0.963617,-0.436496 1.314454,-0.492187 0.357555,-0.06248 0.96943,-0.06144 1.833984,0.002 l 9.595703,9.503906 c 0.773382,0.766031 1.194413,1.331037 1.263672,1.695313 0.110866,0.593643 -0.126335,1.187131 -0.710938,1.777343 l -0.472656,0.476563 0.376953,0.373047 4.75586,-4.802734 -0.375,-0.373047 -0.484375,0.488281 c -0.530846,0.53594 -1.067148,0.792006 -1.607422,0.767578 -0.391734,-0.02514 -1.011369,-0.456929 -1.859375,-1.296875 L 58.6875,68.255859 78.810547,70.164062 79.173828,69.798828 67.541016,58.277344 c -0.773382,-0.766031 -1.194413,-1.331037 -1.263672,-1.695313 -0.110866,-0.593643 0.123289,-1.182196 0.701172,-1.765625 l 0.484375,-0.488281 z m 82.314452,12.185547 c -17.11598,0.773603 -31.18513,7.253245 -42.20898,19.4375 C 96.167557,97.665679 90.65625,113.283 90.65625,132.42969 c 0,21.27409 6.043305,38.58307 18.13086,51.92773 12.18425,13.24796 28.33357,20.74182 48.44727,22.48242 v 59.61719 h 15.66406 v -59.61719 c 23.1114,-2.03071 40.37255,-10.29767 51.7832,-24.80273 11.50735,-14.50507 17.26172,-30.99311 17.26172,-49.46289 0,-19.72689 -5.60892,-35.730765 -16.82617,-48.01172 -11.12055,-12.280955 -23.20716,-18.421875 -36.26172,-18.421875 -7.44593,0 -13.82991,2.175824 -19.14844,6.527344 -5.22182,4.254819 -8.60514,9.23608 -10.15234,14.941406 -1.54721,5.608625 -2.32031,14.553025 -2.32031,26.833985 v 84.27539 c -26.59262,-6.67233 -39.89063,-28.91474 -39.89063,-66.72461 0,-34.908857 10.68584,-55.118934 32.05664,-60.630859 z m 132.64649,4.630859 -0.42969,0.310547 c 0.21186,0.294571 0.33515,0.547022 0.36914,0.757813 0.14126,0.768775 0.17884,1.311229 0.11328,1.628906 -0.06,0.325428 -0.29396,1.022639 -0.70117,2.091797 l -3.49414,9.076172 -3.73242,2.683593 c -0.88372,0.635589 -1.51015,0.958928 -1.88086,0.966797 -0.60381,0.01085 -1.14553,-0.317713 -1.625,-0.984375 l -0.40235,-0.558593 -0.42969,0.310547 4.81836,6.697265 0.42969,-0.310547 -0.36914,-0.511718 c -0.45718,-0.635654 -0.62739,-1.217359 -0.51367,-1.746094 0.0842,-0.389888 0.60914,-0.933942 1.57812,-1.63086 l 3.95508,-2.841796 8.72266,-0.50586 c 1.08645,-0.07569 1.91073,-0.07418 2.47265,0.0039 0.56192,0.07809 1.07029,0.246499 1.52735,0.50586 0.45706,0.259361 0.75934,0.489857 0.9043,0.691406 l 0.21679,0.302734 0.42969,-0.308593 -3.95508,-5.5 -0.42969,0.308593 c 0.30107,0.418602 0.47563,0.769002 0.52539,1.050782 0.0575,0.276204 0.0398,0.530535 -0.0527,0.761718 -0.0869,0.238936 -0.23803,0.435688 -0.45508,0.591797 -0.35658,0.256466 -1.06766,0.413687 -2.13086,0.472657 l -7.08398,0.402343 2.71484,-6.945312 c 0.38858,-0.996947 0.72289,-1.59421 1.00195,-1.794922 0.34109,-0.245315 0.70382,-0.279275 1.0918,-0.09961 0.39356,0.187417 0.72234,0.463786 0.98438,0.828124 l 0.25,0.34961 0.43164,-0.310547 z m -238.048833,8.626954 -0.291016,0.408203 9.060547,14.835937 c 0.800255,1.296262 1.246876,2.274979 1.337891,2.9375 0.04828,0.327371 -0.105024,0.863128 -0.458985,1.607422 l 0.431641,0.308594 3.546875,-4.982422 -0.431641,-0.308594 c -0.597086,0.723609 -1.069027,1.138115 -1.414062,1.244141 -0.347277,0.09271 -0.641655,0.05446 -0.882813,-0.117188 -0.303391,-0.215945 -0.667447,-0.675031 -1.09375,-1.376953 l -1.734375,-2.851562 4.361329,-6.125 2.957031,0.662109 c 0.960512,0.214849 1.610837,0.44387 1.953125,0.6875 0.256716,0.182723 0.395714,0.449783 0.414062,0.802734 0.02389,0.345172 -0.174412,0.843825 -0.591797,1.496094 l 0.431641,0.308594 4.443359,-6.244141 -0.43164,-0.30664 c -0.498472,0.617994 -1.032104,0.998434 -1.603516,1.142578 -0.573654,0.130827 -1.548282,0.04204 -2.921875,-0.267578 z m 3.03125,3.423828 8.304687,1.867187 -3.871093,5.4375 z m 138.779293,0.144531 c 8.79974,0 16.43904,5.463476 22.91797,16.390625 6.57563,10.830448 9.86328,24.271948 9.86328,40.324218 0,34.81216 -15.23077,54.49219 -45.6914,59.03711 v -86.01563 c 0,-9.08984 0.24306,-15.182925 0.72656,-18.277339 0.5802,-3.094414 1.93314,-5.752452 4.06055,-7.976562 2.22411,-2.320811 4.93193,-3.482422 8.12304,-3.482422 z m 108.89649,10.519531 c -0.83011,-0.03882 -1.63144,0.144533 -2.4043,0.546875 -0.71145,0.370375 -1.27975,0.869508 -1.70508,1.5 -0.42532,0.630492 -0.72321,1.383794 -0.89258,2.257813 -0.16495,0.882488 -0.27897,2.275824 -0.34179,4.181644 -0.0543,1.90141 -0.12295,3.08428 -0.20508,3.54687 -0.11693,0.68525 -0.33163,1.25348 -0.64453,1.70703 -0.30849,0.46202 -0.67418,0.80493 -1.09766,1.02539 -0.76226,0.39683 -1.58397,0.43079 -2.46484,0.10352 -0.87646,-0.31881 -1.58947,-1.0077 -2.14063,-2.06641 -0.47619,-0.91472 -0.71233,-1.86332 -0.70703,-2.8457 0.01,-0.97391 0.22287,-1.80597 0.63867,-2.49609 0.42428,-0.69454 1.19644,-1.473937 2.31836,-2.337895 l -0.24414,-0.470703 -5.9082,3.076168 0.24609,0.47071 c 0.42894,-0.14795 0.73701,-0.19697 0.92578,-0.14453 0.19319,0.0609 0.34485,0.19841 0.45508,0.41015 0.11464,0.22021 0.24959,0.81079 0.40625,1.77344 0.16955,0.96671 0.30215,1.59235 0.39649,1.87695 0.15305,0.48011 0.35899,0.971 0.61914,1.47071 0.82893,1.59229 1.97658,2.64755 3.4414,3.16601 1.47771,0.52252 2.86951,0.44465 4.17383,-0.23437 0.68604,-0.35715 1.2576,-0.85969 1.7168,-1.50782 0.46361,-0.63966 0.76925,-1.37605 0.91797,-2.20703 0.16159,-0.82691 0.25705,-2.26915 0.2832,-4.32812 0.0314,-2.524581 0.22799,-4.214506 0.58984,-5.070315 0.24236,-0.589065 0.62528,-1.02155 1.1504,-1.294922 0.68604,-0.357147 1.44588,-0.386044 2.27929,-0.08789 0.84189,0.293745 1.49261,0.880877 1.95117,1.761719 0.40565,0.779207 0.59896,1.636644 0.58008,2.572266 -0.0189,0.935622 -0.26549,1.775232 -0.74023,2.517582 -0.47034,0.75081 -1.2387,1.50034 -2.30274,2.24804 l 0.2461,0.46875 5.95703,-3.10156 -0.24414,-0.4707 c -0.44217,0.12253 -0.76805,0.14765 -0.97852,0.0742 -0.19759,-0.0694 -0.35411,-0.21338 -0.46875,-0.43359 -0.10141,-0.1948 -0.1699,-0.58539 -0.20508,-1.16992 -0.0846,-1.258514 -0.3656,-2.345045 -0.84179,-3.259765 -0.7628,-1.465247 -1.83886,-2.438701 -3.23047,-2.919922 -0.51868,-0.182111 -1.02733,-0.285301 -1.52539,-0.308594 z m -260.031252,0.363281 -0.234375,0.476563 c 0.424722,0.239959 0.68571,0.456682 0.78125,0.652344 0.09117,0.182886 0.09739,0.356606 0.01758,0.519531 -0.07981,0.162925 -0.328828,0.440046 -0.74414,0.832031 -0.817849,0.779596 -1.406485,1.40624 -1.765625,1.878906 -0.35494,0.464091 -0.687198,1.013889 -0.998047,1.648438 -0.852736,1.740718 -1.219734,3.431088 -1.09961,5.074218 0.152655,1.96742 0.85205,3.79841 2.095703,5.49219 1.04504,1.42636 2.334219,2.51566 3.869141,3.26758 2.118021,1.03756 4.308891,1.29734 6.572266,0.77929 3.017832,-0.69073 5.353043,-2.72182 7.003906,-6.09179 0.575492,-1.17478 0.973512,-2.30255 1.195313,-3.38477 0.2218,-1.08222 0.308337,-2.24562 0.259765,-3.49219 l -5.337891,-2.615231 c -0.934673,-0.457873 -1.518692,-0.85081 -1.751953,-1.177735 -0.324079,-0.467109 -0.321792,-1.034276 0.0059,-1.703125 l 0.15625,-0.322265 -0.488281,-0.240235 -3.308594,6.753911 0.490234,0.23828 c 0.344455,-0.70315 0.655351,-1.15639 0.935547,-1.35938 0.275822,-0.21576 0.582512,-0.32025 0.919922,-0.31445 0.333035,-0.007 0.937851,0.20434 1.8125,0.63281 l 5.041015,2.4707 c 0.04423,0.7128 0.0022,1.40783 -0.128906,2.08789 -0.131122,0.68007 -0.354871,1.34321 -0.669922,1.98633 -0.537685,1.0976 -1.380313,2.01275 -2.527343,2.74805 -1.151405,0.72252 -2.570765,1.07 -4.257813,1.04102 -1.687048,-0.029 -3.361844,-0.4507 -5.02539,-1.26563 -2.049422,-1.00396 -3.579094,-2.35509 -4.587891,-4.05078 -1.190782,-2.01876 -1.24227,-4.13845 -0.154297,-6.35938 0.798127,-1.629243 1.95329,-2.71562 3.464844,-3.261714 1.04743,-0.380045 2.368257,-0.461774 3.96289,-0.244141 l 0.220704,-0.451172 z m 269.400392,13.412111 -0.49219,0.19726 0.25586,0.63868 c 0.16982,0.42571 0.22515,0.87446 0.16797,1.34961 -0.05,0.33862 -0.16717,0.59825 -0.35352,0.77539 -0.24668,0.23205 -0.82868,0.53012 -1.74218,0.89453 l -11.65235,4.64843 c -1.08201,0.43164 -1.80706,0.59769 -2.17578,0.49805 -0.56902,-0.16366 -1.00359,-0.61829 -1.30078,-1.36328 l -0.25391,-0.63867 -0.49218,0.19726 3.08398,7.72852 0.49219,-0.19727 -0.26172,-0.65039 c -0.16982,-0.42571 -0.22283,-0.87161 -0.16211,-1.33789 0.0464,-0.34749 0.16131,-0.60997 0.34766,-0.78711 0.24668,-0.23205 0.82673,-0.53012 1.74023,-0.89453 l 11.6543,-4.65039 c 1.08201,-0.43163 1.80938,-0.59288 2.18164,-0.48437 0.56902,0.16366 1.00127,0.61348 1.29492,1.34961 l 0.25977,0.65234 0.49218,-0.19531 z m -275.947267,10.8789 c -0.509134,0.0234 -1.005944,0.13876 -1.490234,0.34961 -0.974906,0.40979 -1.748599,1.04128 -2.320313,1.89454 -0.578037,0.84132 -1.167901,2.24909 -1.773437,4.2207 l -2.078125,6.76367 0.505859,0.1543 0.214844,-0.69727 c 0.215863,-0.70284 0.578887,-1.16971 1.089844,-1.40234 0.361457,-0.16867 1.126562,-0.0737 2.294921,0.28515 l 11.994141,3.6836 c 1.058826,0.32519 1.699738,0.62571 1.923828,0.9043 0.407431,0.49471 0.491094,1.13493 0.25,1.91992 l -0.214843,0.69922 0.507812,0.15429 2.443359,-7.95508 -0.507812,-0.15429 -0.222656,0.72461 c -0.21306,0.69371 -0.573878,1.15344 -1.082032,1.37695 -0.361457,0.16867 -1.126562,0.0737 -2.294921,-0.28516 l -5.394532,-1.6582 c 0.05398,-0.14324 0.107024,-0.2819 0.158203,-0.41602 l 0.117188,-0.38281 c 0.08971,-0.29209 0.197547,-0.6734 0.322265,-1.14453 l 10.611329,-3.61914 1.521484,-4.95508 -0.505859,-0.15625 c -0.420713,0.97955 -0.928379,1.72205 -1.523438,2.22852 -0.595059,0.50647 -1.638606,1.0111 -3.130859,1.51172 l -6.503907,2.19726 c 0.132527,-1.66738 -0.108021,-2.99883 -0.720703,-3.99609 -0.609878,-1.0064 -1.485977,-1.68668 -2.626953,-2.03711 -0.533976,-0.164 -1.055319,-0.23241 -1.564453,-0.20899 z m 273.669927,2.79493 c -0.9162,0.0246 -1.84033,0.16307 -2.7754,0.41797 -2.32154,0.63284 -4.16624,1.81822 -5.5332,3.55664 -1.83853,2.33212 -2.33458,5.05165 -1.48828,8.15625 0.46961,1.72273 1.26157,3.10453 2.37695,4.14648 1.11538,1.04195 2.63499,1.80589 4.5586,2.29102 L 299.0957,139 c -1.85156,-0.69281 -3.16656,-1.43339 -3.94531,-2.2207 -0.76954,-0.78983 -1.32085,-1.79177 -1.65234,-3.00782 -0.38172,-1.40029 -0.38985,-2.74048 -0.0254,-4.01757 0.36696,-1.26789 1.09784,-2.34206 2.19336,-3.22461 1.09551,-0.88256 2.49045,-1.55551 4.18554,-2.01758 2.05438,-0.56002 3.85111,-0.74331 5.38867,-0.54883 1.54008,0.20369 2.75998,0.72325 3.66016,1.55664 0.90939,0.83088 1.53402,1.86765 1.87305,3.11133 0.40431,1.48321 0.33078,2.86829 -0.21875,4.15625 -0.54954,1.28796 -1.69989,2.47735 -3.45117,3.56836 l 0.11718,0.42969 6.25391,-2.16602 -0.13281,-0.48242 c -0.46983,0.0192 -0.86175,-0.0568 -1.17578,-0.22852 -0.22527,-0.13653 -0.37165,-0.32939 -0.43946,-0.57812 -0.0452,-0.16583 -0.0191,-0.46994 0.0781,-0.91211 0.30418,-1.4982 0.2715,-2.92507 -0.0977,-4.2793 -0.47463,-1.74115 -1.3455,-3.23081 -2.61328,-4.46875 -1.25605,-1.23123 -2.78153,-2.05147 -4.57617,-2.46289 -0.89732,-0.20571 -1.80451,-0.29608 -2.7207,-0.27148 z m -274.531255,0.33984 c 0.52615,-0.0382 1.078587,0.0329 1.658203,0.21094 1.186615,0.36444 2.024474,1.11476 2.513672,2.2539 0.492002,1.13002 0.465737,2.58077 -0.07813,4.35157 l -0.0957,0.3164 c -0.04838,0.12499 -0.09908,0.27384 -0.152344,0.44727 l -7.722656,-2.37305 c 0.104109,-0.95692 0.237793,-1.6991 0.40039,-2.22851 0.367247,-1.19575 1.026822,-2.04224 1.978516,-2.53907 0.472685,-0.25437 0.971897,-0.40127 1.498047,-0.43945 z m -0.398437,15.93359 c -1.998698,0.0663 -3.80609,0.68583 -5.419922,1.85938 -2.159884,1.55393 -3.416142,3.57856 -3.771485,6.07422 -0.358035,2.51457 0.169795,4.79407 1.585938,6.83789 1.632347,2.3543 3.975891,3.74884 7.029297,4.18359 2.987232,0.42534 5.548607,-0.12603 7.685546,-1.65429 2.138286,-1.53773 3.396559,-3.63043 3.773438,-6.27735 0.372841,-2.61855 -0.273456,-4.98554 -1.939453,-7.10351 -1.665998,-2.11797 -3.9598,-3.38487 -6.880859,-3.80079 -0.708996,-0.10094 -1.396268,-0.14122 -2.0625,-0.11914 z m -0.345704,3.2129 c 0.729383,0.0213 1.505691,0.0899 2.328125,0.20703 3.034499,0.43206 5.171822,1.34044 6.41211,2.72265 1.241633,1.37276 1.733647,2.96005 1.476562,4.76563 -0.240933,1.69213 -1.077407,2.96319 -2.509765,3.81054 -1.883267,1.10144 -4.392765,1.4293 -7.53125,0.98243 -3.062859,-0.43611 -5.297425,-1.41628 -6.701172,-2.9375 -1.128132,-1.22157 -1.56919,-2.69162 -1.324219,-4.41211 0.261123,-1.83394 1.109265,-3.18031 2.542969,-4.03711 1.350682,-0.7987 3.118493,-1.16537 5.30664,-1.10156 z m 283.566406,1.24218 c -0.1689,0.005 -0.33887,0.0169 -0.51172,0.0391 -0.79558,0.10196 -1.50228,0.37545 -2.11914,0.82032 -0.61686,0.44486 -1.15451,1.04875 -1.61523,1.81054 -0.45951,0.77127 -1.04864,2.03972 -1.76563,3.80664 -0.70751,1.76572 -1.17921,2.85203 -1.41601,3.25782 -0.34634,0.60273 -0.74506,1.06324 -1.19532,1.38086 -0.44904,0.32709 -0.9112,0.52134 -1.38476,0.58203 -0.85241,0.10923 -1.63396,-0.14262 -2.34766,-0.75391 -0.71248,-0.60182 -1.14516,-1.49384 -1.29687,-2.67773 -0.13109,-1.02289 -0.0239,-1.99393 0.32031,-2.91407 0.34538,-0.91066 0.83242,-1.61892 1.46094,-2.12304 0.63799,-0.50533 1.63119,-0.96913 2.98242,-1.39258 l -0.0664,-0.52539 -6.60742,0.8457 0.0684,0.52539 c 0.45364,0.009 0.76086,0.0712 0.91992,0.18555 0.16028,0.12386 0.25481,0.30424 0.28516,0.54102 0.0315,0.24625 -0.0451,0.84909 -0.23047,1.80664 -0.17466,0.9658 -0.26761,1.59681 -0.27734,1.89648 -0.0221,0.50342 0.003,1.03495 0.0742,1.59375 0.22818,1.78058 0.94099,3.16781 2.13672,4.16016 1.20642,1.0006 2.53754,1.40761 3.9961,1.2207 0.76716,-0.0983 1.47807,-0.37255 2.13281,-0.82227 0.65596,-0.44024 1.19852,-1.02538 1.625,-1.7539 0.43717,-0.72027 1.02236,-2.04153 1.75781,-3.96485 0.9011,-2.35849 1.6696,-3.87644 2.30469,-4.55468 0.43084,-0.46916 0.94013,-0.74116 1.52734,-0.81641 0.76717,-0.0983 1.49071,0.13555 2.16992,0.70313 0.68869,0.56636 1.09643,1.34117 1.22266,2.32617 0.11166,0.87134 -0.003,1.74367 -0.34375,2.61523 -0.34076,0.87157 -0.86259,1.57465 -1.56445,2.10742 -0.70065,0.54225 -1.67879,0.98012 -2.93555,1.31446 l 0.0664,0.52539 6.66406,-0.85352 -0.0684,-0.52539 c -0.45728,-0.0377 -0.77119,-0.12794 -0.94336,-0.26953 -0.16149,-0.13333 -0.25946,-0.32406 -0.29101,-0.57031 -0.0279,-0.21784 0.0441,-0.60724 0.21289,-1.16797 0.35511,-1.21034 0.46702,-2.32673 0.33593,-3.34961 -0.20997,-1.63851 -0.88551,-2.92335 -2.02539,-3.85547 -0.9891,-0.81666 -2.07547,-1.20742 -3.25781,-1.17383 z M 25.322266,164.78711 a 3.7795276,3.7795276 0 0 0 -3.779297,3.7793 3.7795276,3.7795276 0 0 0 3.779297,3.77929 3.7795276,3.7795276 0 0 0 3.779296,-3.77929 3.7795276,3.7795276 0 0 0 -3.779296,-3.7793 z m 281.953124,0 a 3.7795276,3.7795276 0 0 0 -3.7793,3.7793 3.7795276,3.7795276 0 0 0 3.7793,3.77929 3.7795276,3.7795276 0 0 0 3.7793,-3.77929 3.7795276,3.7795276 0 0 0 -3.7793,-3.7793 z m -271.095702,14.57422 -0.519532,0.0957 0.13086,0.71875 c 0.133279,0.72306 0.04761,1.27924 -0.259766,1.66602 -0.305645,0.39617 -1.046901,0.7016 -2.220703,0.91797 l -7.464844,1.37695 c -2.300652,0.42407 -3.840735,0.86186 -4.621094,1.3164 -1.137671,0.67576 -1.968178,1.62081 -2.492187,2.83399 -0.524009,1.21318 -0.595198,2.86259 -0.210938,4.94727 0.353104,1.91564 1.007411,3.35852 1.962891,4.32812 0.966601,0.97726 2.01185,1.55653 3.132813,1.73828 1.132084,0.18942 2.654667,0.10701 4.570312,-0.24609 l 7.748047,-1.42774 c 1.061117,-0.19559 1.754579,-0.22166 2.082031,-0.0781 0.4499,0.18404 0.771399,0.47413 0.990234,0.84765 0.107724,0.36081 0.182663,0.67416 0.189454,0.89454 0.01194,0.59174 -0.0353,1.05722 -0.140625,1.39648 -0.102216,0.34828 -0.373038,0.89535 -0.8125,1.64258 l -12.769532,4.39844 c -1.029197,0.3545 -1.722766,0.48191 -2.080078,0.38281 -0.581408,-0.16331 -1.006798,-0.63644 -1.277343,-1.42188 l -0.220704,-0.63672 -0.5,0.17188 2.201172,6.39258 0.501953,-0.17188 -0.224609,-0.65039 c -0.245668,-0.71321 -0.237571,-1.30757 0.02344,-1.78125 0.195907,-0.34016 0.857822,-0.70503 1.986328,-1.09375 l 11.30664,-3.89453 -10.617187,17.20117 0.167969,0.48633 15.478515,-5.33008 c 1.029198,-0.35451 1.722767,-0.48387 2.080078,-0.38476 0.555936,0.15615 0.96355,0.60164 1.232422,1.31836 l -0.0332,0.0176 0.144531,0.27735 0.152344,0.44726 0.0625,-0.0215 c 0.313087,0.63074 0.37598,1.20215 0.179687,1.71094 -0.148564,0.37785 -0.760777,0.8452 -1.83789,1.40234 l -11.144531,5.76367 c -0.975339,0.5045 -1.650952,0.73713 -2.027344,0.69532 -0.624396,-0.064 -1.126631,-0.46203 -1.503906,-1.19141 l -0.335938,-0.64844 -0.470703,0.24414 3.988281,7.70899 c 1.732834,3.35007 3.921715,5.37909 6.566407,6.08593 2.365979,0.62526 4.748255,0.31767 7.148437,-0.92382 1.789535,-0.92564 3.15576,-2.15463 4.095703,-3.6836 0.944331,-1.52049 1.360364,-3.1066 1.248047,-4.75781 -0.10793,-1.64273 -0.828486,-3.75179 -2.162109,-6.33008 l -3.472657,-6.71289 -2.033203,-5.90625 -0.501953,0.17188 0.21875,0.63671 c 0.248777,0.72225 0.242634,1.31661 -0.02148,1.78125 -0.192798,0.34919 -0.853916,0.71676 -1.982422,1.10547 l -10.589844,3.64844 9.904297,-15.9707 -1.314453,-3.81446 -1.121094,-6.08398 -0.521484,0.0957 0.130859,0.71875 c 0.133279,0.72307 0.02731,1.30566 -0.318359,1.74805 -0.252028,0.31832 -0.973433,0.58682 -2.166016,0.80664 l -7.732422,1.42578 c -2.02833,0.37388 -3.503748,0.45676 -4.425781,0.24805 -0.910912,-0.20106 -1.730642,-0.74526 -2.457031,-1.63086 -0.726389,-0.8856 -1.203384,-1.95225 -1.433594,-3.20117 -0.180014,-0.97661 -0.160321,-1.83407 0.0625,-2.57422 0.224552,-0.73076 0.571536,-1.32575 1.041016,-1.78125 0.469479,-0.4555 1.171656,-0.8408 2.103515,-1.1582 0.93359,-0.30802 1.769876,-0.53123 2.511719,-0.66797 l 8.326172,-1.53321 c 1.070508,-0.19732 1.796407,-0.20955 2.177734,-0.0371 0.560005,0.24632 0.911245,0.76394 1.056641,1.55274 l 0.136719,0.73242 0.519531,-0.0977 z m 258.894532,2.5332 -0.0879,0.52344 c 0.4272,0.1674 0.70387,0.34423 0.82812,0.5293 0.1164,0.17409 0.15378,0.38396 0.11328,0.6289 -0.0358,0.21668 -0.21438,0.56801 -0.53711,1.05664 -0.68773,1.05738 -1.11501,2.09584 -1.2832,3.11328 -0.26942,1.62979 0.008,3.05519 0.83203,4.27539 0.81476,1.21865 1.90973,1.9406 3.28516,2.16797 0.79134,0.13082 1.54504,0.0712 2.26367,-0.17773 0.71863,-0.24898 1.40827,-0.67214 2.06836,-1.26953 0.66165,-0.60681 1.58899,-1.65208 2.7832,-3.13867 1.18479,-1.48815 1.94961,-2.39416 2.29297,-2.71485 0.50484,-0.47788 1.01851,-0.80358 1.54102,-0.97851 0.52406,-0.18436 1.02115,-0.23803 1.49219,-0.16016 0.84786,0.14016 1.52707,0.60598 2.03515,1.39648 0.50964,0.78108 0.66733,1.75991 0.47266,2.9375 -0.16819,1.01745 -0.55062,1.91864 -1.14453,2.70118 -0.59236,0.77311 -1.261,1.31089 -2.00782,1.61328 -0.75623,0.30083 -1.84189,0.45899 -3.25781,0.47656 l -0.0879,0.52344 6.57227,1.08594 0.0859,-0.52344 c -0.43187,-0.13914 -0.70861,-0.28616 -0.82812,-0.44141 -0.11795,-0.16467 -0.15612,-0.36409 -0.11719,-0.59961 0.0405,-0.24494 0.28576,-0.80008 0.73828,-1.66406 0.44467,-0.87496 0.71517,-1.45403 0.81055,-1.73828 0.16577,-0.47587 0.29484,-0.99105 0.38672,-1.54688 0.29278,-1.7711 0.009,-3.30372 -0.85156,-4.59765 -0.86825,-1.30492 -2.02772,-2.07853 -3.47852,-2.31836 -0.76308,-0.12615 -1.52298,-0.067 -2.2793,0.17578 -0.75475,0.23332 -1.44086,0.63753 -2.05859,1.21289 -0.6256,0.56438 -1.56741,1.66187 -2.82422,3.29297 -1.54045,2.00037 -2.71056,3.23388 -3.51367,3.70117 -0.54742,0.32567 -1.11318,0.4403 -1.69727,0.34375 -0.76308,-0.12614 -1.38934,-0.55815 -1.87695,-1.29687 -0.49703,-0.74029 -0.66392,-1.60032 -0.50195,-2.58008 0.14327,-0.86671 0.50337,-1.66926 1.08008,-2.40625 0.5767,-0.73699 1.27626,-1.25959 2.10156,-1.56836 0.82685,-0.31819 1.89157,-0.45668 3.1914,-0.41602 l 0.0859,-0.52344 z m -1.69531,13.02539 -4.41797,15.22852 0.14844,0.0508 -2.72266,6.14844 0.48437,0.21484 0.27344,-0.61523 c 0.30928,-0.69849 0.71878,-1.12839 1.22852,-1.28907 0.3789,-0.12462 1.1137,0.0539 2.20507,0.53711 l 10.24219,4.53516 -18.12695,4.96094 -2.13477,4.81836 0.48438,0.21484 c 0.22809,-0.51513 0.43821,-0.8812 0.62891,-1.09961 0.39397,-0.44168 0.74467,-0.75085 1.05273,-0.92773 0.31193,-0.18562 0.88431,-0.40397 1.71484,-0.65235 l 12.34961,5.46875 c 0.99534,0.44072 1.59082,0.81898 1.78516,1.13477 0.31484,0.51534 0.30313,1.15251 -0.0332,1.91211 l -0.27149,0.61523 0.48438,0.21484 2.73632,-6.18164 -0.48437,-0.21484 -0.2793,0.62891 c -0.30541,0.68975 -0.71491,1.11965 -1.22851,1.28906 -0.37504,0.11589 -1.10785,-0.0675 -2.19922,-0.55078 l -10.93555,-4.8418 19.48633,-5.37695 0.20898,-0.4707 -14.9707,-6.62891 c -0.99533,-0.44072 -1.58886,-0.81897 -1.7832,-1.13477 -0.31484,-0.51534 -0.30708,-1.14757 0.0254,-1.89843 l 0.2793,-0.62891 -0.0859,-0.0391 3.74804,1.29492 0.15235,-0.52344 c -0.82508,-0.30892 -1.43719,-0.70454 -1.83399,-1.1875 -0.39679,-0.48295 -0.61251,-0.98821 -0.64843,-1.51562 -0.022,-0.40407 0.093,-1.0409 0.3457,-1.91211 l 0.65039,-2.24219 14.25195,4.13281 c 1.04545,0.30324 1.68499,0.59985 1.91993,0.88672 0.38111,0.46846 0.45727,1.09609 0.22851,1.88477 l -0.19141,0.66015 0.50977,0.14844 2.29297,-7.91016 -0.50781,-0.14843 -0.1875,0.64648 c -0.21015,0.72448 -0.55868,1.2066 -1.04493,1.44336 -0.35611,0.16515 -1.10757,0.0805 -2.2539,-0.25195 l -14.25,-4.13282 0.76172,-2.6289 c 0.22344,-0.77033 0.53139,-1.35092 0.92382,-1.74414 0.38593,-0.40505 0.88565,-0.67273 1.5,-0.80274 0.38069,-0.0785 0.96994,-0.0562 1.76954,0.0664 l 0.15234,-0.52344 z M 47.181641,222.70508 c 0.75045,0.84812 1.321974,1.6527 1.716797,2.41601 1.05286,2.03549 1.228147,4.0581 0.52539,6.06641 -0.702757,2.00831 -2.245686,3.6286 -4.628906,4.86133 -2.366258,1.22395 -4.575271,1.54545 -6.628906,0.96289 -2.053636,-0.58256 -3.589657,-1.85853 -4.607422,-3.82617 -0.377275,-0.72939 -0.725257,-1.69459 -1.044922,-2.89453 z m 232.960939,6.9707 -7.87305,12.73047 0.45117,0.2793 0.36133,-0.58594 c 0.42191,-0.68215 0.88497,-1.06872 1.39063,-1.16016 0.37421,-0.0605 1.08522,0.23293 2.13281,0.88086 l 10.73242,6.63867 c 0.80396,0.49725 1.30627,0.87464 1.50586,1.13282 0.20462,0.25005 0.29056,0.54453 0.25977,0.88476 -0.0292,0.46472 -0.16321,0.8934 -0.4043,1.28321 l -0.36328,0.58398 0.45117,0.2793 7.87305,-12.73047 -3.25977,-3.98633 -0.30078,0.48633 c 0.68863,1.15569 1.12823,2.14213 1.32031,2.95703 0.14059,0.62587 0.14492,1.19071 0.0137,1.69336 -0.13124,0.50265 -0.48488,1.2204 -1.0625,2.1543 l -1.73242,2.80078 c -0.28127,0.45476 -0.51725,0.73658 -0.70703,0.84375 -0.1979,0.10214 -0.39341,0.13788 -0.58789,0.10742 -0.2026,-0.0355 -0.66951,-0.28038 -1.40039,-0.73242 l -5.44531,-3.36719 2.24414,-3.62891 c 0.42693,-0.69027 0.82501,-1.15226 1.19336,-1.38476 0.36835,-0.2325 0.74059,-0.33431 1.11523,-0.30469 0.2977,0.0269 0.88353,0.23168 1.75781,0.61523 l 0.2793,-0.44921 -5.75,-3.55665 -0.2793,0.45118 c 0.91189,0.63136 1.42474,1.27245 1.53711,1.92578 0.0883,0.49251 -0.15955,1.21032 -0.74218,2.15234 l -2.24414,3.63086 -6.5293,-4.03906 2.80273,-4.53125 c 0.5073,-0.82021 0.92142,-1.35598 1.24414,-1.60547 0.42168,-0.30057 0.85819,-0.45101 1.3086,-0.45312 0.45542,-0.0102 1.17012,0.16826 2.14453,0.53515 l 0.29297,-0.47461 z m -225.042971,4.88477 -0.433593,0.30468 0.394531,0.5625 c 0.460577,0.65667 0.632884,1.23558 0.517578,1.73633 -0.09196,0.36775 -0.641944,0.90597 -1.650391,1.61328 l -10.330078,7.24414 c -0.773924,0.54283 -1.318811,0.85586 -1.634765,0.9375 -0.310471,0.0895 -0.617432,0.0531 -0.917969,-0.10937 -0.415572,-0.21004 -0.754391,-0.50172 -1.017578,-0.87695 l -0.394532,-0.56446 -0.433593,0.30469 8.59375,12.25391 4.949219,-1.42383 -0.328126,-0.46875 c -1.333576,0.17725 -2.413651,0.19356 -3.238281,0.0488 -0.630605,-0.11754 -1.150349,-0.33552 -1.560547,-0.6543 -0.410198,-0.31878 -0.929994,-0.92912 -1.560546,-1.82813 l -1.892579,-2.69726 c -0.307051,-0.43778 -0.472424,-0.76381 -0.496093,-0.98047 -0.01585,-0.22214 0.02815,-0.41727 0.132812,-0.58398 0.112484,-0.1722 0.521042,-0.50457 1.22461,-0.99805 l 5.242187,-3.67578 2.451172,3.49414 c 0.46606,0.66448 0.732324,1.21045 0.800781,1.64062 0.06846,0.43018 0.01476,0.81191 -0.160156,1.14454 -0.142125,0.26296 -0.560651,0.72077 -1.257813,1.37304 l 0.304688,0.4336 5.533203,-3.88086 -0.302734,-0.4336 c -0.939719,0.58913 -1.732233,0.80663 -2.376954,0.65235 -0.487449,-0.11298 -1.049511,-0.62443 -1.685546,-1.53125 l -2.451172,-3.49414 6.285156,-4.40821 3.058594,4.36328 c 0.553789,0.78956 0.882313,1.38045 0.984375,1.77539 0.109987,0.50602 0.07796,0.96611 -0.09766,1.38086 -0.170136,0.42258 -0.616571,1.01087 -1.33789,1.76172 l 0.320312,0.45703 3.359375,-2.61914 z m 218.332031,11.60351 c -1.27154,-0.0187 -2.46333,0.25091 -3.57226,0.8086 -1.47247,0.73624 -3.13827,2.21851 -4.99805,4.44726 l -4.71094,5.64649 -4.76172,4.21093 0.35156,0.39649 0.54688,-0.48242 c 0.55078,-0.48706 1.10482,-0.69695 1.66211,-0.62891 0.4027,0.0518 1.00527,0.53102 1.80859,1.43945 l 5.20899,5.89063 c 1.36627,1.54505 2.1975,2.76645 2.49414,3.66406 0.29746,0.88414 0.25529,1.86627 -0.12891,2.94531 -0.3842,1.07904 -1.05255,2.03959 -2.00391,2.88086 -0.74391,0.65784 -1.49117,1.08072 -2.24023,1.27149 -0.7419,0.18444 -1.42819,0.1947 -2.06055,0.0273 -0.63236,-0.16736 -1.32564,-0.5684 -2.07812,-1.20312 -0.74533,-0.64106 -1.36749,-1.24546 -1.86719,-1.81055 l -5.60742,-6.33985 c -0.72109,-0.81544 -1.10541,-1.43201 -1.1543,-1.84765 -0.0777,-0.60682 0.1843,-1.1757 0.78516,-1.70703 l 0.55664,-0.49414 -0.34961,-0.39649 -5.91992,5.23438 -0.082,-0.11328 -13.19141,8.79687 2.33594,3.91602 0.45312,-0.30078 c -0.43175,-0.76797 -0.6446,-1.46485 -0.63672,-2.08985 0.008,-0.625 0.16801,-1.15172 0.48047,-1.57812 0.24362,-0.32312 0.74333,-0.73503 1.49805,-1.23828 l 1.94336,-1.29688 8.23047,12.3457 c 0.6039,0.90567 0.9037,1.54526 0.89844,1.91602 -0.0105,0.60381 -0.3578,1.13231 -1.04102,1.58789 l -0.57031,0.38281 0.29297,0.43946 6.85156,-4.56836 -0.29297,-0.44141 -0.56055,0.37305 c -0.62761,0.41849 -1.20413,0.56205 -1.72851,0.42968 -0.37872,-0.10324 -0.89838,-0.65148 -1.56055,-1.64453 l -8.23242,-12.3457 2.27539,-1.51758 c 0.66733,-0.44498 1.27854,-0.69056 1.83203,-0.73828 0.55614,-0.061 1.11054,0.057 1.66406,0.35352 0.34165,0.18534 0.77818,0.58234 1.31055,1.1914 l 0.45312,-0.30273 -2.30664,-3.12891 0.2129,-0.18945 c 0.55078,-0.48705 1.0726,-0.69867 1.5625,-0.63477 0.49704,0.0576 1.14097,0.53361 1.93164,1.42774 l 5.02734,5.6875 c 1.54971,1.75249 2.72182,2.84509 3.51367,3.27929 1.16564,0.62628 2.40324,0.85242 3.71289,0.67579 1.30965,-0.17664 2.75773,-0.96882 4.3457,-2.37305 1.45922,-1.29037 2.35729,-2.59348 2.69532,-3.91211 0.33885,-1.33211 0.29732,-2.52593 -0.125,-3.58008 -0.42149,-1.06763 -1.27799,-2.3318 -2.56836,-3.79101 l -5.2168,-5.90039 c -0.71476,-0.8083 -1.0967,-1.38957 -1.14258,-1.74415 -0.1021,-0.65997 0.0786,-1.22068 0.50782,-1.6914 l 0.0371,0.0312 0.32618,-0.39063 0.36132,-0.31836 -0.0351,-0.0391 c 0.42136,-0.43242 0.87319,-0.66897 1.36328,-0.68359 0.4059,-0.01 1.07477,0.37344 2.00586,1.15039 l 9.63281,8.03906 c 0.84312,0.70354 1.31844,1.23643 1.42578,1.59961 0.18299,0.6004 0.0125,1.2152 -0.51367,1.8457 l -0.46875,0.5625 0.4082,0.33789 5.56055,-6.66406 c 2.41649,-2.89591 3.438,-5.69824 3.06445,-8.41015 -0.34072,-2.42337 -1.54825,-4.50112 -3.62304,-6.23243 -1.54693,-1.29083 -3.20865,-2.07385 -4.98242,-2.34765 -0.44192,-0.0703 -0.87303,-0.109 -1.29688,-0.11524 z M 64.390625,247.97461 64,248.33203 l 0.494141,0.53906 c 0.497269,0.54158 0.717765,1.09194 0.660156,1.65039 -0.03721,0.39714 -0.505966,1.00736 -1.40625,1.83399 l -9.242188,8.48633 c -0.815882,0.74913 -1.402203,1.15063 -1.755859,1.20312 -0.632822,0.10141 -1.225859,-0.15098 -1.78125,-0.75586 l -0.494141,-0.53711 -0.390625,0.35743 5.628907,6.13085 0.390625,-0.35937 -0.513672,-0.55859 c -0.490811,-0.53455 -0.704692,-1.07749 -0.640625,-1.62891 0.03721,-0.39714 0.505966,-1.00931 1.40625,-1.83594 l 4.15625,-3.8164 c 0.09629,0.11899 0.18946,0.23374 0.279297,0.3457 l 0.271484,0.29492 c 0.206657,0.22507 0.482745,0.51163 0.826172,0.85742 l -2.244141,10.98438 3.507813,3.81836 0.390625,-0.35742 c -0.632441,-0.85822 -1.018165,-1.67195 -1.154297,-2.44141 -0.136132,-0.76946 -0.04126,-1.92621 0.28125,-3.4668 l 1.390625,-6.7207 c 1.371596,0.95732 2.642319,1.42286 3.8125,1.39844 1.176638,-0.0174 2.2048,-0.42908 3.083984,-1.23633 0.822916,-0.75559 1.297996,-1.65815 1.423828,-2.70703 0.139325,-1.04831 -0.01575,-2.03434 -0.46289,-2.95899 -0.433649,-0.92407 -1.347251,-2.14678 -2.742188,-3.66601 z m 207.857425,0.86328 c 1.85128,0.088 3.67785,0.88253 5.48047,2.38672 2.04546,1.70684 3.19801,3.62134 3.45703,5.74023 0.25901,2.1189 -0.32093,4.02763 -1.74024,5.72852 -0.52612,0.6305 -1.28144,1.32614 -2.26367,2.08594 l -12.67969,-10.58008 c 0.49093,-1.02053 1.01191,-1.86166 1.5625,-2.52149 1.46825,-1.75954 3.26498,-2.70334 5.38867,-2.83398 0.26547,-0.0163 0.53046,-0.0184 0.79493,-0.006 z M 67.126953,252.9668 c 0.772982,0.57361 1.346137,1.06471 1.720703,1.47265 0.846003,0.92139 1.243899,1.91795 1.191406,2.99024 -0.039,1.07286 -0.505186,2.01967 -1.398437,2.83984 -0.914351,0.83955 -1.986639,1.18118 -3.216797,1.02735 -1.223699,-0.14681 -2.461984,-0.90114 -3.714844,-2.26563 l -0.222656,-0.24414 c -0.08338,-0.10493 -0.185891,-0.22379 -0.308594,-0.35742 z m 11.716797,12.34765 c -1.459531,-0.008 -2.912278,0.2996 -4.359375,0.92383 -1.624324,0.6987 -2.975868,1.71176 -4.052734,3.03906 -1.485956,1.83153 -2.229904,3.90857 -2.232422,6.23047 -0.0034,3.09587 1.451104,5.82516 4.365234,8.18946 1.015867,0.82419 2.026296,1.46507 3.03125,1.92382 1.004954,0.45876 2.121928,0.80501 3.347656,1.03711 l 3.744141,-4.61523 c 0.655746,-0.80825 1.170121,-1.28932 1.541016,-1.44336 0.52787,-0.21112 1.079826,-0.0825 1.658203,0.38672 l 0.277343,0.22461 0.34375,-0.42188 -5.839843,-4.73828 -0.341797,0.42383 c 0.608037,0.49331 0.978271,0.89823 1.113281,1.2168 0.148442,0.31717 0.182849,0.63927 0.101563,0.96679 -0.06785,0.32613 -0.407851,0.86866 -1.021485,1.625 l -3.539062,4.35938 c -0.704574,-0.11668 -1.372499,-0.31547 -2.00586,-0.5957 -0.63336,-0.28024 -1.229024,-0.64646 -1.785156,-1.09766 -0.949131,-0.77005 -1.651872,-1.79546 -2.111328,-3.07813 -0.446025,-1.28407 -0.466978,-2.74519 -0.06055,-4.38281 0.406431,-1.63761 1.194221,-3.17475 2.361328,-4.61328 1.437828,-1.77221 3.095934,-2.96145 4.97461,-3.56445 2.23432,-0.70793 4.311914,-0.28276 6.232422,1.27539 1.408866,1.14304 2.208991,2.51387 2.402343,4.10937 0.13557,1.10597 -0.08083,2.41076 -0.65039,3.91602 l 0.388671,0.3164 3.472657,-5.07617 -0.410157,-0.33398 c -0.329062,0.36012 -0.6004,0.56403 -0.8125,0.61328 -0.198668,0.0479 -0.368878,0.0147 -0.509765,-0.0996 -0.140887,-0.1143 -0.355623,-0.41754 -0.644531,-0.91016 -0.576419,-0.97179 -1.055419,-1.68662 -1.435547,-2.14257 -0.372713,-0.44995 -0.832143,-0.89662 -1.38086,-1.3418 -1.505263,-1.22125 -3.07293,-1.95771 -4.701171,-2.20899 -0.487892,-0.0731 -0.974428,-0.1105 -1.460938,-0.11328 z m 12.541016,8.05664 -0.269532,0.45508 0.628907,0.37305 c 0.63255,0.37478 1.001201,0.83739 1.107421,1.38867 0.07913,0.39095 -0.191436,1.11255 -0.814453,2.16406 l -6.396484,10.79493 c -0.564609,0.95293 -1.008631,1.50575 -1.332031,1.6582 -0.576523,0.27994 -1.217344,0.2096 -1.923828,-0.20899 l -0.628907,-0.37304 -0.269531,0.45703 7.158203,4.24219 0.269531,-0.45704 -0.652343,-0.38671 c -0.624335,-0.36992 -0.985979,-0.82859 -1.083985,-1.375 -0.07913,-0.39095 0.19339,-1.1106 0.816407,-2.16211 l 2.876953,-4.85547 c 0.126571,0.0861 0.248831,0.16877 0.367187,0.25 l 0.345703,0.20508 c 0.262878,0.15575 0.608413,0.35022 1.03711,0.58203 l 1.027344,11.16211 4.460937,2.64453 0.269531,-0.45703 c -0.85345,-0.63886 -1.455925,-1.30661 -1.808594,-2.00391 -0.352668,-0.6973 -0.597962,-1.83037 -0.734374,-3.39844 l -0.609376,-6.83789 c 1.589713,0.52015 2.939532,0.5998 4.052735,0.23828 1.121423,-0.35665 1.987283,-1.04735 2.595703,-2.07422 0.56948,-0.96114 0.7627,-1.9634 0.58008,-3.0039 -0.16954,-1.04385 -0.60163,-1.94322 -1.29688,-2.69922 -0.68217,-0.75935 -1.911118,-1.66546 -3.685544,-2.7168 z m 4.064453,3.98829 c 0.905757,0.32578 1.595799,0.6298 2.072265,0.9121 1.076157,0.63762 1.744312,1.47782 2.003907,2.51954 0.272676,1.03836 0.100571,2.07779 -0.517579,3.12109 -0.632751,1.06794 -1.561069,1.70783 -2.783203,1.91601 -1.213918,0.21306 -2.61724,-0.15339 -4.210937,-1.09765 l -0.283203,-0.16797 c -0.110142,-0.0764 -0.244307,-0.16143 -0.400391,-0.25391 z M 229.5,279.64062 l -0.47266,0.24024 c 0.11803,0.44339 0.13808,0.77076 0.0625,0.98047 -0.0714,0.19687 -0.21808,0.3505 -0.43945,0.46289 -0.19582,0.0994 -0.58506,0.16414 -1.16992,0.19336 -1.25931,0.0718 -2.34806,0.34174 -3.26758,0.80859 -1.47294,0.74783 -2.45775,1.81453 -2.95312,3.20117 -0.4997,1.37813 -0.43386,2.68858 0.19726,3.93164 0.36311,0.71519 0.85825,1.28898 1.48438,1.72071 0.62612,0.43172 1.37384,0.73775 2.24609,0.91601 0.88076,0.17394 2.27461,0.30059 4.17969,0.38282 1.90076,0.0737 3.08123,0.15535 3.54297,0.24218 0.68401,0.12391 1.25083,0.34461 1.70117,0.66211 0.45885,0.31319 0.79753,0.68172 1.01367,1.10742 0.38905,0.76627 0.41435,1.58736 0.0781,2.46485 -0.32771,0.87317 -1.02362,1.58075 -2.08789,2.12109 -0.91952,0.46686 -1.86928,0.69305 -2.85156,0.67774 -0.97376,-0.0196 -1.80438,-0.24125 -2.49023,-0.66407 -0.69018,-0.43133 -1.46197,-1.21308 -2.31446,-2.34375 l -0.47265,0.24024 3.01562,5.93945 0.47266,-0.24023 c -0.14357,-0.43043 -0.18717,-0.73951 -0.13281,-0.92774 0.0629,-0.19255 0.19925,-0.3431 0.41211,-0.45117 0.22136,-0.11239 0.8151,-0.24182 1.77929,-0.38867 0.96839,-0.15969 1.59531,-0.28552 1.88086,-0.37695 0.48164,-0.14816 0.97423,-0.35043 1.47656,-0.60547 1.60066,-0.81268 2.66587,-1.94874 3.19922,-3.40821 0.53755,-1.4723 0.4743,-2.86265 -0.1914,-4.17382 -0.35014,-0.68965 -0.84682,-1.2686 -1.49024,-1.73438 -0.6349,-0.4701 -1.36785,-0.78423 -2.19726,-0.94141 -0.82523,-0.17 -2.26562,-0.27709 -4.32422,-0.32421 -2.52413,-0.0571 -4.21238,-0.27203 -5.06445,-0.64258 -0.58657,-0.24834 -1.0152,-0.63619 -1.28321,-1.16406 -0.35014,-0.68965 -0.37108,-1.44897 -0.0644,-2.2793 0.3023,-0.83885 0.89578,-1.48403 1.78125,-1.9336 0.7833,-0.39769 1.64274,-0.58114 2.57812,-0.55273 0.93539,0.0284 1.7723,0.28334 2.50977,0.76563 0.74598,0.47796 1.48779,1.25262 2.22461,2.32421 l 0.47266,-0.24023 z m -113.60742,6.24805 -12.42969,12.15235 c -1.08424,1.0701 -1.93912,1.72393 -2.56445,1.96093 -0.30826,0.12033 -0.86529,0.0905 -1.669924,-0.0879 l -0.203125,0.49024 5.650389,2.34179 0.20313,-0.49023 c -0.8389,-0.41996 -1.34873,-0.78706 -1.5293,-1.09961 -0.16809,-0.31771 -0.19534,-0.61326 -0.082,-0.88672 0.14255,-0.34403 0.50897,-0.80239 1.09765,-1.375 l 2.39063,-2.32617 6.94726,2.87891 0.0156,3.02929 c 0.006,0.98423 -0.0735,1.67046 -0.23437,2.0586 -0.12063,0.2911 -0.34957,0.48514 -0.68946,0.58203 -0.33106,0.10054 -0.86265,0.0206 -1.5918,-0.24024 l -0.20117,0.49024 7.07813,2.93164 0.20312,-0.48828 c -0.71389,-0.34749 -1.20426,-0.78395 -1.47265,-1.3086 -0.25592,-0.52981 -0.38688,-1.4982 -0.39258,-2.90625 l -0.0605,-17.51367 z m 94.0293,3.23633 -14.31641,4.36328 0.1543,0.50586 0.65625,-0.19922 c 0.76726,-0.23374 1.37236,-0.21831 1.8125,0.0469 0.32096,0.20167 0.66056,0.892 1.01953,2.07031 l 3.67773,12.07031 c 0.27548,0.90428 0.40143,1.51807 0.38086,1.84375 -0.0114,0.3229 -0.1409,0.6027 -0.38867,0.83789 -0.32877,0.32974 -0.71195,0.56175 -1.15039,0.69532 l -0.6582,0.19921 0.15624,0.50782 14.31641,-4.36133 0.18359,-5.14649 -0.54687,0.16602 c -0.24589,1.32264 -0.56714,2.35295 -0.96094,3.0918 -0.30765,0.56287 -0.67501,0.9904 -1.10547,1.28125 -0.43045,0.29084 -1.17222,0.59601 -2.22265,0.91601 l -3.15039,0.96094 c -0.51152,0.15583 -0.8746,0.21084 -1.08789,0.16601 -0.21608,-0.0539 -0.38578,-0.1573 -0.51172,-0.30859 -0.12873,-0.16042 -0.31988,-0.65058 -0.57031,-1.47265 l -1.86524,-6.125 4.08398,-1.24415 c 0.77641,-0.23652 1.37845,-0.32054 1.8086,-0.25195 0.43015,0.0686 0.77725,0.23821 1.03906,0.50781 0.20579,0.2168 0.50875,0.75773 0.91211,1.62305 l 0.50781,-0.1543 -1.9707,-6.46679 -0.50586,0.15429 c 0.26798,1.07626 0.22783,1.89607 -0.11914,2.46094 -0.25884,0.42822 -0.917,0.80417 -1.97656,1.12695 l -4.08399,1.24415 -2.23633,-7.34376 5.09571,-1.55273 c 0.92255,-0.28105 1.58703,-0.40852 1.99414,-0.38281 0.51514,0.0527 0.94354,0.22568 1.2832,0.52148 0.3488,0.29302 0.76825,0.89944 1.25781,1.81836 l 0.53321,-0.16211 z m -96.22266,0.67773 0.0391,8.51172 -6.16601,-2.55468 z m 10.93359,0.24805 -0.13086,0.51367 0.70899,0.17774 c 0.71277,0.18036 1.19908,0.52087 1.45703,1.01953 0.18423,0.36181 0.12757,1.13102 -0.16992,2.30664 l -3.07813,12.16211 c -0.26938,1.06453 -0.54522,1.72457 -0.82617,1.97851 -0.46208,0.4248 -1.09063,0.53544 -1.88672,0.33399 l -0.70898,-0.17774 -0.12891,0.51368 8.41406,2.1289 c 3.65645,0.92526 6.62504,0.63341 8.90821,-0.87695 2.03723,-1.3559 3.38787,-3.34516 4.05078,-5.96484 0.49425,-1.9532 0.48172,-3.7883 -0.0391,-5.50586 -0.51152,-1.71523 -1.42221,-3.07868 -2.73242,-4.08985 -1.30095,-1.00882 -3.35975,-1.86798 -6.17382,-2.58008 z m 5.00391,2.81641 c 1.13247,9.3e-4 2.1161,0.10754 2.94922,0.31836 2.22164,0.56218 3.84989,1.77286 4.88672,3.63086 1.03682,1.858 1.22658,4.08633 0.56836,6.6875 -0.65354,2.58265 -1.87963,4.44913 -3.67774,5.59961 -1.79811,1.15047 -3.77038,1.4536 -5.91797,0.91015 -0.79609,-0.20145 -1.74934,-0.58004 -2.85937,-1.13672 z m 65.87305,0.6289 -15.63282,2.64258 0.53321,4.5293 0.53711,-0.0899 c -0.0806,-0.87732 0.011,-1.60065 0.27343,-2.16796 0.26239,-0.56731 0.6227,-0.98052 1.08203,-1.24219 0.35432,-0.19549 0.97863,-0.37025 1.87305,-0.52149 l 2.30078,-0.38867 2.47461,14.63086 c 0.18149,1.07331 0.1933,1.77893 0.0371,2.11524 -0.25616,0.54689 -0.78797,0.88848 -1.59766,1.02539 l -0.67773,0.11328 0.0879,0.52344 8.1211,-1.37305 -0.0898,-0.52344 -0.66211,0.11328 c -0.74378,0.12577 -1.32927,0.0205 -1.7539,-0.31445 -0.30356,-0.24888 -0.55492,-0.9618 -0.75391,-2.13867 l -2.47266,-14.63086 2.69727,-0.45508 c 0.79086,-0.13372 1.44792,-0.11016 1.97266,0.0723 0.53256,0.17142 0.9908,0.50523 1.375,1.00195 0.23619,0.30869 0.47364,0.8497 0.71093,1.62305 l 0.53711,-0.0899 z m -52.42188,1.3418 -0.0547,0.52734 0.72657,0.0742 c 0.73142,0.0749 1.24035,0.31327 1.52539,0.7168 0.29453,0.4045 0.38133,1.2013 0.25976,2.38867 l -0.77344,7.55078 c -0.23827,2.32725 -0.24866,3.93012 -0.0312,4.80664 0.32952,1.28155 1.00204,2.34424 2.01954,3.1875 1.01749,0.84327 2.58068,1.37199 4.68945,1.58789 1.93779,0.1984 3.5064,-0.0248 4.70508,-0.66992 1.20915,-0.65368 2.05799,-1.49259 2.54687,-2.51758 0.49936,-1.0335 0.84848,-2.51924 1.04688,-4.45703 l 0.80273,-7.83593 c 0.1099,-1.07339 0.27819,-1.74744 0.50781,-2.02149 0.47362,-0.59461 1.09165,-0.85319 1.85157,-0.77539 l 0.72656,0.0742 0.0527,-0.52734 -6.83789,-0.69922 -0.0547,0.52539 0.72656,0.0762 c 0.73142,0.0749 1.26217,0.33904 1.58984,0.79492 0.23485,0.3312 0.28953,1.10027 0.16602,2.30664 l -0.80078,7.82227 c -0.21007,2.05177 -0.54495,3.49188 -1.00391,4.31836 -0.44849,0.81795 -1.20011,1.44961 -2.25391,1.89843 -1.05379,0.44883 -2.21125,0.60982 -3.47461,0.48047 -0.98789,-0.10114 -1.80518,-0.36367 -2.45312,-0.78515 -0.63844,-0.42051 -1.11049,-0.91965 -1.41602,-1.49805 -0.30552,-0.5784 -0.48015,-1.35832 -0.52343,-2.3418 -0.0338,-0.98251 -0.0124,-1.84919 0.0644,-2.59961 l 0.86133,-8.42187 c 0.11087,-1.08288 0.30368,-1.78196 0.57617,-2.09961 0.39351,-0.46843 0.9892,-0.66177 1.78711,-0.58008 l 0.74023,0.0762 0.0547,-0.52734 z m 30.00977,1.15039 -0.50196,0.0176 -6.24414,16.22461 c -0.54034,1.42434 -1.04376,2.37379 -1.51367,2.84961 -0.23018,0.23773 -0.74883,0.44245 -1.55469,0.61523 l 0.0195,0.5293 6.11133,-0.22266 -0.0195,-0.52929 c -0.93758,-0.0326 -1.55336,-0.15428 -1.84765,-0.36328 -0.2851,-0.2189 -0.43255,-0.47568 -0.44336,-0.77149 -0.0136,-0.37215 0.12695,-0.94133 0.42382,-1.70703 l 1.20508,-3.11133 7.51563,-0.27344 1.27539,2.74805 c 0.41483,0.89256 0.62918,1.54889 0.64453,1.96875 0.0115,0.31489 -0.11607,0.58682 -0.38477,0.81641 -0.25916,0.22924 -0.77535,0.37693 -1.54687,0.44336 l 0.0195,0.52929 7.6582,-0.27929 -0.0195,-0.5293 c -0.79375,-0.0188 -1.42233,-0.21088 -1.88476,-0.57617 -0.45325,-0.37519 -0.97506,-1.20261 -1.56641,-2.48047 z m -0.86914,4.48828 3.58007,7.72461 -6.66992,0.24414 z"
         transform="matrix(0.26458333,0,0,0.26458333,100.0001,109.00006)"
         id="path4529"
         inkscape:connector-curvature="0" />
    </g>
  </g>
</svg>
