<?xml version="1.0" encoding="UTF-8" standalone="no"?>
<svg
   xmlns:dc="http://purl.org/dc/elements/1.1/"
   xmlns:cc="http://creativecommons.org/ns#"
   xmlns:rdf="http://www.w3.org/1999/02/22-rdf-syntax-ns#"
   xmlns:svg="http://www.w3.org/2000/svg"
   xmlns="http://www.w3.org/2000/svg"
   id="svg8"
   version="1.1"
   viewBox="0 0 110.37376 125.19093"
   height="125.19093mm"
   width="110.37376mm">
  <defs
     id="defs2" />
  <metadata
     id="metadata5">
    <rdf:RDF>
      <cc:Work
         rdf:about="">
        <dc:format>image/svg+xml</dc:format>
        <dc:type
           rdf:resource="http://purl.org/dc/dcmitype/StillImage" />
        <dc:title></dc:title>
      </cc:Work>
    </rdf:RDF>
  </metadata>
  <g
     transform="translate(-50.012444,-86.778685)"
     id="layer1">
    <g
       transform="translate(-1.0690781,-11.759859)"
       style="fill:#ffffff;fill-opacity:1"
       id="g832">
      <path
         id="path846"
         d="m 97.914729,205.909 v -17.82032 l -2.579687,-0.17888 c -18.429986,-1.27792 -32.880548,-10.1591 -40.088108,-24.63777 -1.906526,-3.82987 -3.279968,-8.67327 -3.910306,-13.78958 -0.532119,-4.31909 -0.194932,-12.89765 0.669549,-17.03438 2.909983,-13.92488 10.61438,-23.76992 23.33239,-29.81523 2.928612,-1.39208 8.939011,-3.540658 10.957914,-3.91721 l 0.94946,-0.177086 0.571894,3.037546 c 0.314542,1.67065 0.571894,3.21154 0.571894,3.42419 0,0.22726 -0.899578,0.79786 -2.182219,1.38417 -7.720666,3.52921 -13.046181,10.2969 -15.512698,19.71362 -1.492975,5.69991 -1.755402,8.28332 -1.720128,16.93333 0.03113,7.63411 0.04962,7.88989 0.843481,11.66805 2.367418,11.2671 8.204171,19.9426 16.058023,23.86796 3.308461,1.65357 7.731852,2.82844 10.649479,2.82853 l 1.389062,5e-5 0.0089,-30.62552 c 0.0049,-16.84404 0.118237,-31.83766 0.251859,-33.31916 0.386321,-4.28322 1.134555,-6.40151 3.370842,-9.54307 3.45402,-4.85222 8.76771,-7.70649 16.64713,-8.94206 3.43173,-0.538128 9.44976,-0.406816 12.52959,0.273396 14.34017,3.167174 25.78086,14.212514 29.32715,28.313704 1.947,7.74191 1.86398,18.23075 -0.20806,26.28446 -2.66069,10.34176 -9.71236,19.95428 -19.13967,26.09034 -6.94589,4.52095 -17.93831,8.05474 -25.12682,8.07764 l -1.52136,0.005 v 17.85938 17.85937 h -8.06979 -8.069788 z m 20.257761,-24.92028 c 7.03979,-1.22763 12.85633,-4.74191 17.06157,-10.30836 3.19517,-4.22944 6.22693,-11.81882 7.55712,-18.91771 0.68011,-3.62954 0.71952,-4.27168 0.73071,-11.90625 0.0104,-7.13385 -0.055,-8.45337 -0.56423,-11.37708 -1.51273,-8.68486 -4.47872,-15.11375 -8.86638,-19.2182 -3.18546,-2.97984 -6.25883,-4.17834 -10.31285,-4.02162 -1.95563,0.0756 -2.74719,0.23429 -3.93504,0.78892 -2.60485,1.21627 -4.14121,2.94992 -5.24134,5.91444 -0.33807,0.911 -0.40484,5.8192 -0.47965,35.25573 l -0.0869,34.1974 h 0.90079 c 0.49543,0 1.95173,-0.18327 3.2362,-0.40727 z"
         style="fill:#ffffff;fill-opacity:1;stroke-width:0.26458332" />
    </g>
  </g>
</svg>
